<?xml version="1.0" encoding="UTF-8"?>
<svg id="Layer_1" data-name="Layer 1" xmlns="http://www.w3.org/2000/svg" viewBox="0 0 1080 1080">
  <g>
    <path d="M457.85,559.86h-7.91l-1.22-9.14c-4.76,6.54-11.26,9.81-19.51,9.81-5.28,0-9.98-1.15-14.1-3.46-4.13-2.3-7.36-5.65-9.7-10.03-2.34-4.38-3.51-9.58-3.51-15.61s1.17-10.78,3.51-15.16c2.34-4.39,5.59-7.81,9.76-10.25,4.16-2.45,8.84-3.68,14.05-3.68,4.53,0,8.44.86,11.71,2.57,3.27,1.71,5.87,4.05,7.8,7.02l1.22-8.92h7.91v56.85ZM446.48,542.41c1.56-3.16,2.34-6.74,2.34-10.76s-.78-7.75-2.34-10.98c-1.56-3.23-3.77-5.74-6.63-7.52-2.86-1.79-6.11-2.68-9.76-2.68-5.65,0-10.2,1.95-13.65,5.85-3.46,3.9-5.18,8.93-5.18,15.1s1.73,11.2,5.18,15.11c3.46,3.9,8,5.85,13.65,5.85,3.64,0,6.89-.88,9.76-2.62,2.86-1.75,5.07-4.2,6.63-7.36Z"/>
    <path d="M521.16,528.2v31.66h-9.14v-31.1c0-5.87-1.32-10.34-3.96-13.43-2.63-3.08-6.44-4.63-11.42-4.63-5.35,0-9.55,1.85-12.59,5.57-3.05,3.71-4.57,8.77-4.57,15.16v28.43h-9.14v-56.85h7.91l1.22,7.69c4.31-5.57,10.55-8.36,18.73-8.36,6.91,0,12.47,2.08,16.67,6.24,4.2,4.16,6.29,10.7,6.29,19.62Z"/>
    <path d="M586.8,559.86h-7.91l-1.22-9.14c-4.76,6.54-11.26,9.81-19.51,9.81-5.28,0-9.98-1.15-14.1-3.46-4.13-2.3-7.36-5.65-9.7-10.03-2.34-4.38-3.51-9.58-3.51-15.61s1.17-10.78,3.51-15.16c2.34-4.39,5.59-7.81,9.76-10.25,4.16-2.45,8.84-3.68,14.05-3.68,4.61,0,8.54.84,11.81,2.51,3.27,1.67,5.83,3.96,7.69,6.86v-29.87h9.14v78.03ZM575.44,542.41c1.56-3.16,2.34-6.74,2.34-10.76s-.78-7.75-2.34-10.98c-1.56-3.23-3.77-5.74-6.63-7.52-2.86-1.79-6.11-2.68-9.76-2.68-5.65,0-10.2,1.95-13.65,5.85-3.46,3.9-5.18,8.93-5.18,15.1s1.73,11.2,5.18,15.11c3.46,3.9,8,5.85,13.65,5.85,3.64,0,6.89-.88,9.76-2.62,2.86-1.75,5.07-4.2,6.63-7.36Z"/>
    <path d="M653.23,559.86h-7.91l-1.22-9.14c-4.76,6.54-11.26,9.81-19.51,9.81-5.28,0-9.98-1.15-14.1-3.46-4.12-2.3-7.35-5.65-9.7-10.03-2.34-4.38-3.51-9.58-3.51-15.61s1.17-10.78,3.51-15.16c2.34-4.39,5.59-7.81,9.76-10.25,4.16-2.45,8.84-3.68,14.05-3.68,4.53,0,8.43.86,11.7,2.57,3.27,1.71,5.87,4.05,7.81,7.02l1.22-8.92h7.91v56.85ZM641.86,542.41c1.56-3.16,2.34-6.74,2.34-10.76s-.78-7.75-2.34-10.98c-1.56-3.23-3.77-5.74-6.63-7.52-2.86-1.79-6.11-2.68-9.76-2.68-5.65,0-10.2,1.95-13.66,5.85-3.45,3.9-5.18,8.93-5.18,15.1s1.73,11.2,5.18,15.11c3.46,3.9,8.01,5.85,13.66,5.85,3.64,0,6.89-.88,9.76-2.62,2.86-1.75,5.07-4.2,6.63-7.36Z"/>
    <path d="M674.85,481.83v78.03h-9.14v-78.03h9.14Z"/>
    <path d="M736.26,559.86h-7.91l-1.22-7.58c-4.31,5.5-10.37,8.25-18.17,8.25-6.77,0-12.19-2.08-16.28-6.24-4.09-4.16-6.13-10.7-6.13-19.62v-31.66h9.14v31.1c0,5.87,1.28,10.35,3.85,13.43,2.56,3.08,6.22,4.63,10.98,4.63,5.2,0,9.27-1.86,12.2-5.57,2.93-3.71,4.4-8.77,4.4-15.16v-28.42h9.14v56.85Z"/>
    <path d="M760.39,549.49c2.86,2.15,6.56,3.23,11.09,3.23,4.01,0,7.27-.8,9.76-2.4,2.49-1.6,3.73-3.7,3.73-6.29,0-2.23-.59-3.94-1.78-5.13-1.19-1.19-2.73-2-4.63-2.45-1.9-.44-4.59-.89-8.08-1.34-4.9-.59-8.92-1.37-12.04-2.34-3.12-.97-5.65-2.51-7.58-4.63-1.93-2.12-2.9-5.03-2.9-8.75,0-3.34.95-6.32,2.84-8.92,1.9-2.6,4.48-4.63,7.75-6.08,3.27-1.45,6.95-2.17,11.03-2.17,6.69,0,12.13,1.56,16.33,4.68,4.2,3.12,6.52,7.58,6.97,13.38h-9.14c-.37-2.98-1.82-5.43-4.35-7.36-2.53-1.93-5.68-2.9-9.47-2.9s-6.98.8-9.36,2.4c-2.38,1.6-3.57,3.7-3.57,6.29,0,1.93.56,3.42,1.67,4.46,1.12,1.04,2.54,1.75,4.29,2.12,1.75.37,4.4.78,7.97,1.22,4.98.59,9.09,1.41,12.32,2.45,3.23,1.04,5.84,2.71,7.81,5.02,1.97,2.3,2.95,5.42,2.95,9.36,0,3.42-1,6.43-3.01,9.03-2,2.6-4.72,4.61-8.14,6.02-3.41,1.41-7.21,2.12-11.37,2.12-7.43,0-13.39-1.71-17.89-5.12-4.5-3.42-6.78-8.18-6.86-14.27h9.14c.15,3.41,1.66,6.2,4.52,8.36Z"/>
    <path d="M457.85,657.38h-7.91l-1.22-9.14c-4.76,6.54-11.26,9.81-19.51,9.81-5.28,0-9.98-1.15-14.1-3.46-4.13-2.3-7.36-5.65-9.7-10.03-2.34-4.38-3.51-9.58-3.51-15.61s1.17-10.78,3.51-15.16c2.34-4.39,5.59-7.81,9.76-10.25,4.16-2.45,8.84-3.68,14.05-3.68,4.53,0,8.44.86,11.71,2.57,3.27,1.71,5.87,4.05,7.8,7.02l1.22-8.92h7.91v56.85ZM446.48,639.93c1.56-3.16,2.34-6.74,2.34-10.76s-.78-7.75-2.34-10.98c-1.56-3.23-3.77-5.74-6.63-7.52-2.86-1.79-6.11-2.68-9.76-2.68-5.65,0-10.2,1.95-13.65,5.85-3.46,3.9-5.18,8.93-5.18,15.1s1.73,11.2,5.18,15.11c3.46,3.9,8,5.85,13.65,5.85,3.64,0,6.89-.88,9.76-2.62,2.86-1.75,5.07-4.2,6.63-7.36Z"/>
    <path d="M499.2,609.45h-4.57c-5.42,0-9.31,1.82-11.65,5.46-2.34,3.64-3.51,8.14-3.51,13.49v28.98h-9.14v-56.85h7.91l1.22,8.58c1.64-2.6,3.75-4.68,6.35-6.24,2.6-1.56,6.2-2.34,10.81-2.34h2.56v8.92Z"/>
    <path d="M529.97,658.05c-5.5,0-10.33-1.22-14.49-3.68-4.16-2.45-7.39-5.89-9.7-10.31-2.3-4.42-3.46-9.5-3.46-15.22s1.17-10.78,3.51-15.16c2.34-4.39,5.63-7.78,9.87-10.2,4.24-2.41,9.1-3.62,14.6-3.62,6.69,0,12.21,1.79,16.55,5.35,4.35,3.57,7.08,8.47,8.2,14.72h-9.25c-.89-3.64-2.75-6.54-5.57-8.7-2.83-2.15-6.24-3.23-10.25-3.23-5.43,0-9.83,1.93-13.21,5.8-3.38,3.86-5.07,8.88-5.07,15.05s1.69,11.31,5.07,15.22c3.38,3.9,7.78,5.85,13.21,5.85,4.16,0,7.65-1.08,10.48-3.23,2.83-2.15,4.64-5.12,5.46-8.92h9.14c-1.19,6.32-3.98,11.27-8.36,14.88-4.38,3.61-9.95,5.41-16.72,5.41Z"/>
    <path d="M616.56,625.73v31.66h-9.14v-31.1c0-5.87-1.34-10.34-4.01-13.43-2.68-3.08-6.5-4.63-11.48-4.63-5.28,0-9.46,1.85-12.54,5.57-3.08,3.71-4.63,8.77-4.63,15.16v28.43h-9.14v-78.03h9.14v30.54c1.85-2.97,4.33-5.38,7.41-7.24,3.08-1.86,6.86-2.79,11.32-2.79,6.91,0,12.48,2.08,16.72,6.24,4.24,4.16,6.35,10.7,6.35,19.62Z"/>
    <path d="M622.13,608.89v-8.36h18.17v56.85h-9.14v-48.49h-9.03ZM641.64,584.48c0,1.71-.56,3.12-1.67,4.24-1.12,1.11-2.53,1.67-4.24,1.67s-3.12-.56-4.24-1.67c-1.11-1.12-1.67-2.53-1.67-4.24s.56-3.12,1.67-4.24c1.12-1.12,2.53-1.67,4.24-1.67s3.12.56,4.24,1.67c1.12,1.11,1.67,2.53,1.67,4.24Z"/>
    <path d="M646.32,608.89v-8.36h10.25v-15.94h9.14v15.94h14.38v8.36h-14.38v33.55c0,2.38.47,4.07,1.4,5.07.93,1,2.54,1.5,4.85,1.5h9.92v8.36h-10.48c-5.35,0-9.16-1.19-11.42-3.57-2.27-2.38-3.4-6.13-3.4-11.26v-33.66h-10.25Z"/>
    <path d="M697.81,603.49c4.09-2.41,8.77-3.62,14.05-3.62s9.81,1.08,13.82,3.23c4.01,2.15,7.17,5.28,9.47,9.37,2.3,4.09,3.53,8.88,3.68,14.38,0,.82-.08,2.12-.22,3.9h-44.14v.78c.15,5.57,1.85,10.03,5.12,13.37,3.27,3.34,7.54,5.02,12.82,5.02,4.09,0,7.56-1.02,10.42-3.07,2.86-2.04,4.78-4.88,5.74-8.53h9.25c-1.12,5.8-3.9,10.54-8.36,14.21-4.46,3.68-9.92,5.51-16.39,5.51-5.65,0-10.59-1.21-14.83-3.62-4.24-2.41-7.52-5.83-9.86-10.25-2.34-4.42-3.51-9.49-3.51-15.22s1.13-10.88,3.4-15.27c2.26-4.39,5.44-7.78,9.53-10.2ZM723.95,611.9c-3.16-2.68-7.15-4.01-11.99-4.01-4.31,0-8.1,1.41-11.37,4.24-3.27,2.83-5.12,6.5-5.57,11.03h34.33c-.45-4.83-2.25-8.58-5.41-11.26Z"/>
    <path d="M774.94,658.05c-5.5,0-10.33-1.22-14.49-3.68-4.16-2.45-7.39-5.89-9.7-10.31-2.3-4.42-3.46-9.5-3.46-15.22s1.17-10.78,3.51-15.16c2.34-4.39,5.63-7.78,9.86-10.2,4.24-2.41,9.11-3.62,14.6-3.62,6.69,0,12.2,1.79,16.55,5.35,4.34,3.57,7.08,8.47,8.19,14.72h-9.25c-.89-3.64-2.75-6.54-5.57-8.7-2.83-2.15-6.24-3.23-10.26-3.23-5.42,0-9.83,1.93-13.21,5.8-3.38,3.86-5.07,8.88-5.07,15.05s1.69,11.31,5.07,15.22c3.38,3.9,7.78,5.85,13.21,5.85,4.16,0,7.66-1.08,10.48-3.23,2.82-2.15,4.64-5.12,5.46-8.92h9.14c-1.19,6.32-3.97,11.27-8.36,14.88-4.39,3.61-9.96,5.41-16.72,5.41Z"/>
    <path d="M804.13,608.89v-8.36h10.25v-15.94h9.14v15.94h14.38v8.36h-14.38v33.55c0,2.38.47,4.07,1.4,5.07.93,1,2.54,1.5,4.85,1.5h9.92v8.36h-10.48c-5.35,0-9.16-1.19-11.42-3.57-2.27-2.38-3.4-6.13-3.4-11.26v-33.66h-10.25Z"/>
    <path d="M895.08,657.38h-7.91l-1.22-7.58c-4.31,5.5-10.37,8.25-18.17,8.25-6.77,0-12.19-2.08-16.28-6.24-4.09-4.16-6.13-10.7-6.13-19.62v-31.66h9.14v31.1c0,5.87,1.28,10.35,3.85,13.43,2.56,3.08,6.22,4.63,10.98,4.63,5.2,0,9.27-1.86,12.2-5.57,2.93-3.71,4.4-8.77,4.4-15.16v-28.42h9.14v56.85Z"/>
    <path d="M936.43,609.45h-4.57c-5.42,0-9.31,1.82-11.65,5.46-2.34,3.64-3.51,8.14-3.51,13.49v28.98h-9.14v-56.85h7.91l1.23,8.58c1.63-2.6,3.75-4.68,6.35-6.24,2.6-1.56,6.2-2.34,10.81-2.34h2.56v8.92Z"/>
    <path d="M952.48,603.49c4.09-2.41,8.77-3.62,14.05-3.62s9.81,1.08,13.82,3.23c4.01,2.15,7.17,5.28,9.47,9.37,2.3,4.09,3.53,8.88,3.68,14.38,0,.82-.08,2.12-.22,3.9h-44.14v.78c.15,5.57,1.85,10.03,5.12,13.37,3.27,3.34,7.54,5.02,12.82,5.02,4.09,0,7.56-1.02,10.42-3.07,2.86-2.04,4.78-4.88,5.74-8.53h9.25c-1.12,5.8-3.9,10.54-8.36,14.21-4.46,3.68-9.92,5.51-16.39,5.51-5.65,0-10.59-1.21-14.83-3.62-4.24-2.41-7.52-5.83-9.86-10.25-2.34-4.42-3.51-9.49-3.51-15.22s1.13-10.88,3.4-15.27c2.26-4.39,5.44-7.78,9.53-10.2ZM978.62,611.9c-3.16-2.68-7.16-4.01-11.99-4.01-4.31,0-8.1,1.41-11.37,4.24-3.27,2.83-5.12,6.5-5.57,11.03h34.33c-.45-4.83-2.25-8.58-5.41-11.26Z"/>
    <path d="M1023.47,579.35v6.02h-9.92v23.97h-6.69v-23.97h-9.92v-6.02h26.53ZM1036.07,579.35l9.81,21.85,9.7-21.85h9.14v29.99h-6.24v-22.63l-10.03,22.63h-5.46l-9.81-22.63v22.63h-6.24v-29.99h9.14Z"/>
  </g>
  <g>
    <g id="Layer_2" data-name="Layer 2">
      <g id="Layer_1-2" data-name="Layer 1-2">
        <path d="M326,582.29v82.96c-.09-.02-188.77,51.71-188.86,51.61,0,0-118.04-57.79-118.04-57.79v-207.75c-1.09-48.04,41.48-89.86,89.39-88.57.64-.32,117.3,56.03,117.89,56v19.9c-105.36,11.49-89.4,109.19-89.24,188.08,3.27-.89,51.74-14.18,54.3-14.87v-81.49l16.53-4.72,118.04,56.66Z"/>
      </g>
    </g>
    <path d="M302.2,699.9v4.24h-5.25v12.72h-4.56v-12.72h-5.31v-4.24h15.12ZM310.55,699.9l4.69,11.07,4.43-11.07h6.33v16.96h-4.5v-10.95l-4.74,10.95h-3.42l-4.75-10.95v10.95h-4.49v-16.96h6.45Z"/>
  </g>
</svg>